<?xml version="1.0" standalone="no"?>
<!DOCTYPE svg PUBLIC "-//W3C//DTD SVG 20010904//EN"
 "http://www.w3.org/TR/2001/REC-SVG-20010904/DTD/svg10.dtd">
<svg version="1.0" xmlns="http://www.w3.org/2000/svg"
 width="512.000000pt" height="512.000000pt" viewBox="0 0 512.000000 512.000000"
 preserveAspectRatio="xMidYMid meet">

<g transform="translate(0.000000,512.000000) scale(0.100000,-0.100000)"
fill="#000000" stroke="none">
<path d="M793 5106 c-127 -31 -262 -133 -321 -244 -66 -123 -62 27 -62 -2302
0 -2306 -3 -2176 56 -2293 60 -117 208 -228 342 -256 37 -8 428 -11 1300 -11
1373 0 1314 -2 1434 62 113 60 210 185 244 312 10 38 14 131 14 366 0 284 -2
319 -19 355 -66 146 -278 153 -353 12 -22 -40 -23 -54 -28 -349 -5 -303 -5
-308 -28 -330 l-23 -23 -1230 -3 c-1345 -2 -1277 -5 -1299 54 -6 16 -10 805
-10 2104 0 1299 4 2088 10 2104 22 59 -46 56 1299 54 l1230 -3 23 -23 c23 -22
23 -27 28 -330 5 -295 6 -309 28 -349 75 -141 287 -134 353 12 17 36 19 71 19
355 0 323 -4 359 -43 451 -39 89 -134 186 -229 235 -109 55 -69 54 -1428 53
-968 -1 -1267 -4 -1307 -13z"/>
<path d="M3387 3790 c-44 -14 -95 -58 -117 -100 -22 -43 -26 -120 -10 -167 6
-16 169 -184 382 -395 l373 -367 -973 -1 c-855 0 -977 -2 -1010 -15 -163 -69
-163 -301 0 -370 33 -13 155 -15 1010 -15 l973 -1 -373 -367 c-213 -211 -376
-379 -382 -395 -16 -47 -12 -124 10 -167 50 -98 185 -138 275 -81 43 27 1115
1074 1139 1113 29 46 29 150 0 196 -26 42 -1110 1099 -1147 1118 -35 19 -113
26 -150 14z"/>
</g>
</svg>
